<svg xmlns="http://www.w3.org/2000/svg" width="20" height="20" viewBox="0 0 20 20">
  <defs>
    <style>
      .cls-1 {
        fill: #707077;
        fill-rule: evenodd;
      }
    </style>
  </defs>
  <path id="fa-close.svg" class="cls-1" d="M299.724,36.963l-6.972-6.969,6.972-6.969a0.975,0.975,0,0,0,0-1.374l-1.375-1.373a0.977,0.977,0,0,0-1.375,0L290,27.247l-6.972-6.969a0.977,0.977,0,0,0-1.375,0l-1.374,1.374a0.972,0.972,0,0,0,0,1.374l6.971,6.969-6.971,6.969a0.972,0.972,0,0,0,0,1.374l1.374,1.374a0.977,0.977,0,0,0,1.375,0L290,32.741l6.971,6.969a0.977,0.977,0,0,0,1.375,0l1.375-1.374a0.975,0.975,0,0,0,0-1.374h0Z" transform="translate(-280 -20)"/>
</svg>
