<svg xmlns="http://www.w3.org/2000/svg" width="62" height="60" viewBox="0 0 62 60">
  <defs>
    <style>
      .cls-1 {
        fill: #fc807e;
        fill-rule: evenodd;
      }
    </style>
  </defs>
  <path id="fa-star-hover.svg" class="cls-1" d="M181.892,159.35l-14.18-2.071-6.356-12.9a1.4,1.4,0,0,0-2.768,0l-6.356,12.9-14.18,2.071q-1.582.255-1.582,1.3a2.165,2.165,0,0,0,.706,1.362l10.282,10.04-2.429,14.18a4.587,4.587,0,0,0-.057.568,1.671,1.671,0,0,0,.3,1.006,1.026,1.026,0,0,0,.89.412,2.4,2.4,0,0,0,1.13-.341l12.683-6.693,12.683,6.693a2.277,2.277,0,0,0,1.13.341,1,1,0,0,0,.861-0.412,1.671,1.671,0,0,0,.3-1.006,4.473,4.473,0,0,0-.028-0.568l-2.43-14.18,10.254-10.04a2.055,2.055,0,0,0,.735-1.362q0-1.048-1.582-1.3h0ZM159.253,135a1.875,1.875,0,1,1-1.867,1.875A1.871,1.871,0,0,1,159.253,135Zm29.88,21.75a1.875,1.875,0,1,1-1.868,1.875A1.871,1.871,0,0,1,189.133,156.75Zm-11.205,34.5a1.875,1.875,0,1,1-1.868,1.875A1.871,1.871,0,0,1,177.928,191.25Zm-36.6,0a1.875,1.875,0,1,1-1.867,1.875A1.871,1.871,0,0,1,141.325,191.25Zm-10.458-34.5A1.875,1.875,0,1,1,129,158.625,1.871,1.871,0,0,1,130.867,156.75Z" transform="translate(-129 -135)"/>
</svg>
